<svg width="137" height="18" viewBox="0 0 137 18" fill="none" xmlns="http://www.w3.org/2000/svg">
    <path
        d="M8.01983 10.2825V5.4384H8.78204V10.2825H8.01983ZM11.2672 4.53014H5.37169C5.43651 4.31603 5.52844 4.03482 5.60062 3.81607H11.0383C11.1385 4.11965 11.2148 4.35885 11.2672 4.53014ZM5.4704 11.1932H11.1685C11.094 11.4141 10.9935 11.6932 10.9152 11.9067H5.72319C5.65071 11.7065 5.54523 11.4158 5.4704 11.1932ZM16.7588 7.42731L16.7471 7.23475C16.6924 6.3409 16.4694 5.46278 16.088 4.64006L16.0367 4.53014H14.1084C14.0629 4.28913 14.0026 4.05072 13.9277 3.81607H15.6451L15.4528 3.5365C14.4914 2.13865 13.1169 1.08092 11.4788 0.477589L10.7693 0.21602L11.2549 0.762069C11.9281 1.51896 12.4626 2.49295 12.8426 3.65488C12.9322 3.93581 13.0159 4.2342 13.0916 4.54405L13.137 4.74861C13.2656 5.33241 13.3539 5.92321 13.4012 6.51741H12.6261C12.5798 6.00228 12.5011 5.49009 12.3904 4.98345L12.3423 4.76525C12.2361 4.31384 12.0985 3.86924 11.9305 3.43422L11.8824 3.31312H11.8812C11.2015 1.61769 10.1709 0.450586 9.04043 0.1031L8.78204 0.0237294V2.90672H8.01983V0L7.77587 0.0564597C6.54167 0.341758 5.42384 1.57296 4.71172 3.4274L4.56146 3.8158H4.5703C4.46237 4.12791 4.37083 4.44467 4.296 4.76498L4.2795 4.84408C4.15133 5.3958 4.06216 5.95467 4.01257 6.51714H3.23592C3.28445 5.923 3.37301 5.33225 3.50109 4.74834L3.52643 4.63106C3.57416 4.4254 3.67168 4.03537 3.81516 3.59596C4.18286 2.49432 4.69021 1.56341 5.3219 0.829166L5.80804 0.264297L5.09091 0.548504C3.53556 1.16601 2.2274 2.1992 1.30698 3.53678L1.11488 3.81635H2.71177C2.65579 3.98545 2.59304 4.21729 2.53117 4.53041H0.723022L0.672051 4.64088C0.292111 5.46377 0.0690187 6.34136 0.0126691 7.23475L0 7.42731H7.03959V8.14138H0.0100174L0.0276952 8.33776C0.110808 9.29454 0.387036 10.2284 0.842053 11.0909L0.895675 11.1932H2.60954C2.67288 11.5047 2.74065 11.7365 2.80223 11.9067H1.33291L1.55476 12.1942C2.45692 13.3643 3.67698 14.278 5.08325 14.8374L5.79743 15.1216L5.31483 14.5576C4.73235 13.8774 4.25564 13.0288 3.89943 12.0406C3.77698 11.6641 3.66537 11.2847 3.56473 10.9027C3.41523 10.2918 3.31079 9.67209 3.25213 9.048H4.03083C4.1039 9.75034 4.23118 10.4257 4.41002 11.0576L4.42623 11.1127C4.47307 11.281 4.58091 11.6351 4.79157 12.1672L4.89204 12.4094H4.89646C5.61329 14.0102 6.65775 15.0728 7.77558 15.3336L8.01983 15.3909V12.8139H8.78204V15.3682L9.04102 15.2878C10.1232 14.9514 11.132 13.8463 11.8091 12.2561L11.9543 11.9067H11.9464C12.1824 11.2829 12.2631 10.9349 12.2669 10.9185L12.2999 10.7753C12.4437 10.2073 12.546 9.63095 12.606 9.05019H13.3859C13.3258 9.68369 13.2191 10.3127 13.0665 10.9327C12.9662 11.3046 12.8565 11.6743 12.7374 12.0415C12.3665 13.0697 11.8698 13.9404 11.2608 14.6291L10.777 15.1762L11.4859 14.913C12.9737 14.3609 14.2604 13.4205 15.2061 12.1942L15.428 11.9067H13.8317C13.8945 11.7425 13.9661 11.5107 14.0326 11.1932L15.9035 11.1921V11.1828L15.9189 11.1888C16.3888 10.1546 16.6548 9.22229 16.7326 8.33803L16.7503 8.14138H9.7605V7.42731H16.7586M22.5607 13.8127L23.9396 10.6968L25.319 13.8127H22.5607ZM22.9163 8.1572L18.4674 17.8355H20.7956L21.7446 15.6797H26.1346L27.0833 17.8355H29.471L25.022 8.1572H22.9163ZM33.0139 8.59633H30.76V10.477H29.811V12.2616H30.76V15.7482C30.76 17.4509 31.6939 17.9585 33.0731 17.9585C33.8294 17.9585 34.3783 17.7938 34.8527 17.533V15.8583C34.5117 16.031 34.129 16.1207 33.7404 16.1191C33.2366 16.1191 33.0139 15.8859 33.0139 15.4053V12.2616H34.8824V10.477H33.0139V8.59633ZM36.6464 17.8353H38.9003V7.81353H36.6464V17.8353ZM45.7216 15.2406C45.7216 15.9955 45.0097 16.5307 43.9567 16.5307C43.2302 16.5307 42.7261 16.2015 42.7261 15.6388V15.6112C42.7261 14.952 43.3189 14.5952 44.2829 14.5952C44.8318 14.5952 45.3356 14.7049 45.7216 14.8699V15.2406ZM44.3123 10.394C42.9629 10.394 42.1029 10.6278 41.2282 10.9845L41.7915 12.5769C42.5178 12.3298 43.1262 12.1789 43.9865 12.1789C45.1135 12.1789 45.6921 12.659 45.6921 13.5241V13.6477C45.1279 13.4693 44.5501 13.3458 43.749 13.3458C41.8657 13.3458 40.5458 14.0868 40.5458 15.6933V15.7206C40.5458 17.1757 41.7771 17.9722 43.2744 17.9722C44.3722 17.9722 45.1279 17.6015 45.6768 17.0385V17.835H47.857V13.5656C47.857 11.5751 46.774 10.3943 44.3123 10.3943M54.3804 10.3395C53.2385 10.3395 52.5714 10.9024 52.052 11.5202V10.477H49.7984V17.8353H52.0523V13.7303C52.0523 12.7422 52.6009 12.234 53.4612 12.234C54.3212 12.234 54.8253 12.7422 54.8253 13.7303V17.8353H57.0793V13.0714C57.0793 11.383 56.0858 10.3395 54.3804 10.3395ZM61.661 8.59633H59.4071V10.477H58.4581V12.2616H59.4071V15.7482C59.4071 17.4509 60.3414 17.9585 61.7203 17.9585C62.4766 17.9585 63.0255 17.7938 63.4998 17.533V15.8583C63.1589 16.031 62.7762 16.1207 62.3876 16.1191C61.8832 16.1191 61.661 15.8859 61.661 15.4053V12.2616H63.5293V10.477H61.661V8.59633ZM65.293 17.8353H67.5472V10.477H65.2932V17.8353M65.234 9.66688H67.6067V7.81353H65.2343V9.66688M73.5229 16.2015C72.2916 16.2015 71.5058 15.2957 71.5058 14.1697V14.1425C71.5058 13.0577 72.3069 12.1377 73.4339 12.1377C74.235 12.1377 74.7391 12.4539 75.2429 12.9478L76.6224 11.5751C75.8805 10.8062 74.9465 10.3395 73.4486 10.3395C71.0167 10.3395 69.2817 12.0693 69.2817 14.1697V14.197C69.2817 16.2975 71.0315 18 73.4191 18C75.0057 18 75.8955 17.437 76.6666 16.6545L75.3466 15.4189C74.7983 15.8995 74.2789 16.2015 73.5229 16.2015ZM87.7576 16.0506C85.978 16.0506 84.7471 14.6776 84.7471 13.0302V13.0029C84.7471 11.3555 86.0081 10.0103 87.7576 10.0103C88.7956 10.0103 89.6114 10.4221 90.4122 11.0945L91.8653 9.54332C90.9013 8.66506 89.7301 8.06091 87.7726 8.06091C84.5844 8.06091 82.3597 10.2983 82.3597 13.0302V13.0577C82.3597 15.8172 84.6286 18 87.6836 18C89.6854 18 90.8716 17.341 91.9396 16.2836L90.4865 14.925C89.6709 15.6112 88.9441 16.0506 87.7576 16.0506ZM99.3678 14.1973C99.3678 15.2818 98.597 16.2015 97.3066 16.2015C96.0612 16.2015 95.2159 15.2545 95.2159 14.1697V14.1425C95.2159 13.0577 95.9866 12.1377 97.2771 12.1377C98.5228 12.1377 99.3678 13.0853 99.3678 14.1697V14.1973ZM97.3066 10.3392C94.8299 10.3392 92.9914 12.0551 92.9914 14.1695V14.1967C92.9914 16.3111 94.8152 17.9997 97.2771 17.9997C99.7535 17.9997 101.592 16.2833 101.592 14.1695V14.1422C101.592 12.0281 99.7682 10.3392 97.3066 10.3392ZM108.19 14.5816C108.19 15.5701 107.641 16.0779 106.781 16.0779C105.921 16.0779 105.417 15.5701 105.417 14.5816V10.4767H103.163V15.2406C103.163 16.9294 104.156 17.9727 105.862 17.9727C107.004 17.9727 107.671 17.41 108.19 16.792V17.8355H110.444V10.477H108.19V14.5819M117.042 10.3395C115.9 10.3395 115.233 10.9024 114.714 11.5202V10.477H112.46V17.8353H114.714V13.7303C114.714 12.7422 115.263 12.234 116.123 12.234C116.983 12.234 117.487 12.7422 117.487 13.7303V17.8353H119.741V13.0714C119.741 11.383 118.748 10.3395 117.042 10.3395M125.553 16.2015C124.322 16.2015 123.536 15.2957 123.536 14.1697V14.1425C123.536 13.0577 124.337 12.1377 125.464 12.1377C126.265 12.1377 126.769 12.4539 127.273 12.9478L128.652 11.5751C127.911 10.8062 126.977 10.3395 125.479 10.3395C123.047 10.3395 121.312 12.0693 121.312 14.1697V14.197C121.312 16.2975 123.062 18 125.449 18C127.036 18 127.926 17.437 128.697 16.6545L127.377 15.4189C126.829 15.8995 126.309 16.2015 125.553 16.2015ZM130.209 9.66688H132.581V7.81353H130.209V9.66688ZM130.268 17.8353H132.522V10.477H130.268V17.8353M134.746 7.81353V17.8353H137V7.81353H134.746Z"
        fill="#181818" />
</svg>